<svg id="Layer_1" data-name="Layer 1" xmlns="http://www.w3.org/2000/svg" x="0px" y="0px" width="90" height="56" version="1.1" viewBox="0 0 21.42 28.09"  xml:space="preserve">
  <defs>
    <style>
      .cls-1, .cls-2, .cls-3 {
        fill: #8cc63e;
      }

      .cls-1 {
        fill-rule: evenodd;
      }

      .cls-3 {
        font-size: 5.53px;
        font-family: VLRodina, VL Rodina;
      }

      .cls-4 {
        letter-spacing: -0.01em;
      }

      .cls-5 {
        letter-spacing: 0.02em;
      }

      .cls-6 {
        letter-spacing: -0.03em;
      }

      .cls-7 {
        letter-spacing: 0.02em;
      }

      .cls-8 {
        letter-spacing: -0.02em;
      }
    </style>
  </defs>
  <title>logo</title>
  <path class="cls-1" d="M23.79,12.16c.06-.26.1-.49.17-.72a3.71,3.71,0,0,1,.81-1.56,3,3,0,0,1,.78-.6c.23-.14.47-.27.69-.42a1.58,1.58,0,0,0,.55-.62h0a2.69,2.69,0,0,1-.93.71l-.47.23a2.84,2.84,0,0,0-1.47,1.61,1.07,1.07,0,0,1-.07.19h0c0-.14,0-.29,0-.43a2.88,2.88,0,0,1,.2-.83,1.8,1.8,0,0,1,.8-.94c.3-.17.62-.3.94-.45s.43-.19.64-.3A1.26,1.26,0,0,0,27,7.3c0,.07.07.13.09.19a2.28,2.28,0,0,1,.18.86A3.41,3.41,0,0,1,27,9.69,2.14,2.14,0,0,1,25.49,11l-.82.22a1.11,1.11,0,0,0-.78,1,.31.31,0,0,0,.05.12h-.26L23.4,12a10.81,10.81,0,0,1-1.07-2.12,8.32,8.32,0,0,1-.42-1.89,4.56,4.56,0,0,1,.16-1.64c.14-.51.31-1,.46-1.52a4.52,4.52,0,0,0,.23-1.5,3.29,3.29,0,0,0-.15-.82.09.09,0,0,0,0,0,4.4,4.4,0,0,1-.25,1.9C22.16,5,22,5.5,21.76,6a5.32,5.32,0,0,0-.32,1.42,4.42,4.42,0,0,0,0,1.15A7.29,7.29,0,0,0,22,10.44v0h0c-.13-.14-.28-.27-.41-.42a5.27,5.27,0,0,1-1.21-2.36A3.67,3.67,0,0,1,20.49,6a11.21,11.21,0,0,1,.67-1.69,10.18,10.18,0,0,0,.62-1.49,2.8,2.8,0,0,0,.12-1,1.84,1.84,0,0,0-.17-.69l0-.11.11,0a3.85,3.85,0,0,1,1.33.8A6.28,6.28,0,0,1,25,4.53,4.08,4.08,0,0,1,24.61,8c-.22.37-.48.73-.7,1.1a6.92,6.92,0,0,0-.47.84,2,2,0,0,0,.09,1.78Z" transform="translate(-13.09 -0.95)"/>
  <g>
    <polygon class="cls-2" points="18.77 16.22 18.77 11.92 14.74 10.03 14.74 16.22 18.77 16.22"/>
    <polygon class="cls-2" points="6.67 16.22 6.67 10.03 2.65 11.92 2.65 16.22 6.67 16.22"/>
    <path class="cls-2" d="M27.63,22.9c0,.11-.07.22-.12.33a3.69,3.69,0,0,1-.86,1.14,4.2,4.2,0,0,1-1.29.78,4.51,4.51,0,0,1-3.13,0,4.08,4.08,0,0,1-1.29-.78,3.72,3.72,0,0,1-.87-1.14C20,23.12,20,23,20,22.9H15.85a6.24,6.24,0,0,0,.52,1.74,7.34,7.34,0,0,0,1.72,2.3,8.32,8.32,0,0,0,2.56,1.54,8.93,8.93,0,0,0,6.28,0,8.37,8.37,0,0,0,2.57-1.54,7.23,7.23,0,0,0,1.73-2.3,6.24,6.24,0,0,0,.52-1.74Z" transform="translate(-13.09 -0.95)"/>
  </g>
  <text class="cls-3" transform="translate(0 20.42) scale(1.12 1)"><tspan class="cls-4">s</tspan><tspan class="cls-5" x="2.15" y="0">u</tspan><tspan x="4.7" y="0">m </tspan><tspan class="cls-6" x="9.88" y="0">f</tspan><tspan class="cls-7" x="11.39" y="0">a</tspan><tspan class="cls-8" x="13.96" y="0">r</tspan><tspan x="15.47" y="0">m</tspan></text>
</svg>